<?xml version="1.0" encoding="utf-8"?>
<!-- Svg Vector Icons : http://www.onlinewebfonts.com/icon -->
<!DOCTYPE svg PUBLIC "-//W3C//DTD SVG 1.1//EN" "http://www.w3.org/Graphics/SVG/1.1/DTD/svg11.dtd">
<svg version="1.1" xmlns="http://www.w3.org/2000/svg" xmlns:xlink="http://www.w3.org/1999/xlink" x="0px" y="0px" viewBox="0 0 1000 1000" enable-background="new 0 0 1000 1000" xml:space="preserve">
<metadata> Svg Vector Icons : http://www.onlinewebfonts.com/icon </metadata>
<g><path d="M500,10C229.4,10,10,229.4,10,500c0,270.6,219.4,490,490,490c270.6,0,490-219.4,490-490C990,229.4,770.6,10,500,10z M500.9,938.5c-242.6,0-439.3-196.7-439.3-439.4c0-242.6,196.7-439.3,439.3-439.3c242.6,0,439.3,196.7,439.3,439.3C940.2,741.8,743.5,938.5,500.9,938.5z M368.6,355.4c18-13.9,21.4-19.6,21.4-19.6l-80.7-198.2c-28,16.9-35.8,19.1-73.5,54.4c-59.2,55.4-84.6,103-84.6,103l196.6,79.6C347.8,374.5,348.7,370.8,368.6,355.4z M496.6,347.2c-86.4,0-156.4,70-156.4,156.4c0,86.4,70,156.4,156.4,156.4c86.4,0,156.4-70,156.4-156.4C653,417.2,582.9,347.2,496.6,347.2z M496.5,550.5c-25.9,0-47-21-47-47c0-25.9,21-47,47-47c25.9,0,47,21,47,47C543.5,529.5,522.5,550.5,496.5,550.5z M638.4,625.9L617.8,644l117.8,187c0,0,39.6-33,49.1-41.4c24.8-22,38.9-48.4,38.9-48.4L638.4,625.9z"/></g>
</svg>
