<?xml version="1.0" encoding="utf-8"?>
<!-- Svg Vector Icons : http://www.onlinewebfonts.com/icon -->
<!DOCTYPE svg PUBLIC "-//W3C//DTD SVG 1.1//EN" "http://www.w3.org/Graphics/SVG/1.1/DTD/svg11.dtd">
<svg version="1.1" xmlns="http://www.w3.org/2000/svg" xmlns:xlink="http://www.w3.org/1999/xlink" x="0px" y="0px" viewBox="0 0 1000 1000" enable-background="new 0 0 1000 1000" xml:space="preserve">
<metadata> Svg Vector Icons : http://www.onlinewebfonts.com/icon </metadata>
<g><g transform="translate(0.000000,512.000000) scale(0.100000,-0.100000)"><path d="M4741.5,5007.5c-273.8-44-545.7-153.2-777.3-308.3c-153.2-103.4-369.5-319.7-476.7-476.7c-86.2-128.3-237.4-432.7-260.4-526.5c-9.6-36.4-32.5-63.2-78.5-80.4c-101.5-44-229.8-172.3-268-271.9c-28.7-76.6-34.5-149.3-34.5-484.4v-392.5l57.4-114.9c103.4-199.1,331.2-306.3,536.1-250.8c53.6,15.3,109.1,32.6,126.4,40.2c23,9.6,49.8-17.2,109.1-109.1c247-382.9,637.6-639.5,1087.5-716.1c68.9-11.5-36.4-19.1-394.4-26.8c-413.6-11.5-511.2-19.1-641.4-53.6c-367.6-97.6-652.9-294.8-840.5-576.3C2848,601.9,2470.8-72,2045.7-837.9l-769.7-1391.9l-373.3-5.8c-344.6-5.7-381-9.6-463.3-49.8C324.5-2342.7,217.3-2450,156-2568.7l-47.9-93.8l-5.7-806.1c-5.7-788.8-3.8-808,36.4-919c55.5-151.3,197.2-293,348.5-350.4l111.1-40.2H5000h4401.7l111,40.2c151.3,57.4,292.9,199.1,348.5,350.4c40.2,111,42.1,130.2,36.4,919l-5.7,806.1l-47.9,93.8c-61.3,118.7-168.5,225.9-283.4,283.4c-82.3,40.2-118.7,44-463.3,49.8l-373.3,5.8L7954.3-837.9C7529.2-72,7152.1,601.9,7113.8,659.4c-187.7,281.5-472.9,478.7-840.5,576.3c-130.2,34.5-227.9,42.1-641.4,53.6c-358,7.7-463.3,15.3-394.4,26.8c449.9,76.6,840.5,333.2,1087.5,716.1c59.3,91.9,86.2,118.7,109.1,109.1c17.2-7.7,74.7-24.9,126.4-40.2c204.9-55.5,432.7,51.7,536.1,250.8l57.4,114.9v392.5c0,331.2-5.7,407.8-34.5,482.5c-38.3,99.6-143.6,210.6-248.9,262.3c-65.1,30.6-80.4,53.6-141.7,202.9c-237.4,591.6-698.8,1010.9-1282.8,1162.2C5279.6,5011.3,4898.5,5032.4,4741.5,5007.5z M5348.5,4586.3c427-109.1,802.2-427,982.2-834.8c26.8-61.3,47.9-114.9,47.9-118.7c0-5.7-34.5,42.1-78.5,107.2c-405.9,606.9-1183.2,850.1-1878.3,584c-266.1-101.5-557.1-335.1-721.8-584c-88.1-132.1-93.8-134-40.2-7.7c51.7,122.5,193.4,337,291,442.3c162.7,178.1,448,346.5,693.1,409.7C4833.4,4634.1,5157,4634.1,5348.5,4586.3z M5224,4017.6c562.9-114.9,943.9-580.1,943.9-1150.7c0-501.6-292.9-920.9-769.7-1100.9c-147.4-57.4-176.1-61.3-398.2-61.3c-222.1,0-250.8,3.8-398.2,61.3c-371.4,139.8-645.2,442.3-741,817.5c-38.3,147.4-36.4,423.1,1.9,572.5c113,436.5,457.6,765.8,899.9,861.6C4936.8,4054,5047.9,4054,5224,4017.6z M3387.9,3232.6c40.2-28.7,42.1-40.2,42.1-361.9c0-352.3-9.6-392.5-95.7-392.5c-86.2,0-95.7,40.2-95.7,386.8c0,279.5,5.7,333.1,32.6,363.8C3309.4,3270.9,3332.4,3272.8,3387.9,3232.6z M6727,3230.7c30.6-26.8,34.5-65.1,34.5-361.9c0-350.4-9.6-390.6-95.7-390.6c-86.2,0-95.7,40.2-95.7,386.8c0,279.5,5.7,333.1,32.5,363.8C6640.8,3270.9,6681,3272.8,6727,3230.7z M6183.2,854.7c283.4-86.2,463.3-208.7,595.5-404c40.2-59.4,388.7-679.7,777.3-1380.4c386.8-700.8,708.4-1279,712.2-1288.5c3.8-7.7-174.2-11.5-398.2-9.6l-404,5.7l-457.6,823.3c-258.5,463.3-484.4,846.3-515,876.9c-97.6,88.1-229.8,59.3-291-63.2c-32.5-61.3-34.5-162.7-34.5-1248.3v-1183.2H5000H3832.1v1164.1c0,716.1-7.7,1189-19.1,1231.1c-24.9,90-74.7,132.1-168.5,145.5c-63.2,7.7-84.2,1.9-134-44.1c-36.4-34.4-241.3-381-511.2-869.2c-248.9-448-459.5-819.5-467.2-829c-7.7-7.7-191.5-11.5-409.7-9.6l-394.4,5.7l721.8,1303.9c396.3,716.1,752.4,1346,790.7,1397.7c157,216.3,419.3,359.9,754.4,409.7c51.7,9.6,536.1,13.4,1072.2,11.5C6014.8,896.8,6047.3,894.9,6183.2,854.7z M3430-2226v-777.3l-40.2,36.4c-23,19.1-116.8,149.4-210.6,285.3c-91.9,137.9-185.7,266.1-206.8,285.3c-23,21.1-40.2,46-40.2,57.4c0,21.1,478.7,892.2,490.1,892.2C3426.2-1446.7,3430-1797.1,3430-2226z M6840-1902.4l241.3-434.6l-63.2-70.8c-34.5-38.3-130.2-172.3-214.4-296.8c-84.2-124.5-170.4-243.2-193.4-262.3l-40.2-36.4v781.2c0,430.8,5.7,775.4,13.4,767.8C6591-1462,6705.9-1663.1,6840-1902.4z M2669.9-2652.9c24.9-21.1,113-137.9,195.3-260.4c168.5-254.7,292.9-398.3,396.3-449.9c68.9-34.5,135.9-36.4,1738.5-36.4c1602.6,0,1669.6,1.9,1738.5,36.4c103.4,51.7,227.9,195.3,394.4,446.1c78.5,118.7,164.6,237.4,189.5,260.4l46,44l1003.3-5.7c1083.7-5.7,1056.9-3.8,1112.4-109.1c19.2-36.4,24.9-212.5,24.9-788.8v-744.8l-63.2-61.3l-61.3-63.2H5000H615.5l-61.3,63.2l-63.2,61.3l-5.7,666.3c-3.8,365.7-1.9,708.4,5.7,763.9c13.4,107.2,72.7,187.6,149.3,202.9c23,3.8,478.7,9.6,1010.9,11.5C2591.4-2614.6,2622-2616.5,2669.9-2652.9z"/></g></g>
</svg>